<?xml version="1.0" encoding="UTF-8"?>
<!DOCTYPE svg PUBLIC "-//W3C//DTD SVG 1.1//EN"
        "http://www.w3.org/Graphics/SVG/1.1/DTD/svg11.dtd">
<!-- Creator: CorelDRAW 2018 (64-Bit) -->
<svg xmlns="http://www.w3.org/2000/svg" xml:space="preserve" width="100mm"
     height="50mm" version="1.1"
     style="shape-rendering:geometricPrecision; text-rendering:geometricPrecision; image-rendering:optimizeQuality; fill-rule:evenodd; clip-rule:evenodd"
     viewBox="0 0 10000 5000"
     xmlns:xlink="http://www.w3.org/1999/xlink">
 <defs>
  <style type="text/css">
   <![CDATA[
    .fil0 {fill:#0A126E}
    .fil1 {fill:#FDFDFD}
    .fil2 {fill:#FEFEFE;fill-rule:nonzero}
   ]]>
  </style>
 </defs>
    <g id="Слой_x0020_1">
  <metadata id="CorelCorpID_0Corel-Layer"/>
        <g id="_2283921881968">
   <rect class="fil0" x="1306.4" y="1304.08" width="7387.17" height="2391.84"
         rx="691.02" ry="691.02"/>
            <g>
    <path class="fil1"
          d="M2346.29 2434.73c-75.51,-1.69 -202.09,-93.55 -262.65,-127.28 -153.68,-85.57 -361.97,-175.3 -527.5,-267.95 -116.69,-65.31 -182.44,-111.02 -245.06,-124.2 -3.05,26.2 -4.67,52.82 -4.67,79.8l0 103.42 80.68 63.24c274.15,193.7 545.27,363.56 823.49,549.04 65.23,43.49 124.3,81.02 177.9,134.05l59.43 80.93c15.45,30.21 31.02,76.44 40.49,115.49 27.14,111.92 63.64,386.43 86.25,522.02 7.38,44.25 15.05,88.45 22.96,132.63l559.24 0 -645.81 -1964.05c-47.38,-142.19 -97.07,-284.38 -142.33,-427.79l-252.88 0c102.97,478.06 230.46,998.22 230.46,1130.65z"/>
                <path class="fil1"
                      d="M3570.64 1810.85c-16.13,69.25 -227.31,302.42 -282.61,364.66 -15.88,17.87 -17.27,24.66 -35.03,42.95l-117.18 132.38c-38.11,43.12 -129.35,131.56 -134.46,193.07 458.2,242.45 641.67,-142.7 868.71,-480.42 140.66,-209.25 342.87,-577.29 311.12,-759.41l-493 0c-12.08,5.79 -24.35,11.77 -36.96,18.07 -225.28,112.64 -655.22,373.46 -795.72,545.62 -125.19,153.4 -104.35,349.02 -17.92,512.37 166.74,-80.01 169.99,-105.9 321.62,-239.86 17.09,-15.1 25.99,-27.76 43.73,-42.06 38.16,-30.74 330.99,-267.94 367.7,-287.37z"/>
   </g>
            <g>
    <polygon class="fil2"
             points="5553.49,1915.89 5553.49,1789.42 4868.69,1789.42 4868.69,1915.89 5137.77,1915.89 5137.77,2553.6 5284.42,2553.6 5284.42,1915.89 "/>
                <path id="1" class="fil2"
                      d="M5866.96 2553.6l104.94 0 184.32 -474.92 -137.23 0 -100.9 304.06 -94.18 -304.06 -131.85 0 40.37 111.67 -74 209.88 -110.32 -321.55 -131.85 0 185.66 474.92 108.98 0 68.61 -188.35c2.69,-8.08 5.39,-18.84 6.73,-28.26l80.72 216.61z"/>
                <path id="2" class="fil2"
                      d="M6383.59 2553.6l0 -474.92 -134.54 0 0 474.92 134.54 0zm20.18 -653.85l-88.8 -88.8 -87.45 87.45 88.8 88.8 87.45 -87.45z"/>
                <path id="3" class="fil2"
                      d="M7021.3 2183.62l0 -104.94 -117.05 0 -26.91 34.98c-39.01,-32.29 -90.14,-49.78 -145.3,-49.78 -122.43,0 -221.98,87.45 -221.98,211.23 0,73.99 34.98,134.53 90.14,172.2l-104.94 138.58 68.61 22.87c-30.94,25.56 -65.92,68.61 -65.92,125.12 0,107.63 104.94,176.25 227.37,176.25 150.68,0 244.86,-84.76 244.86,-173.56 0,-84.76 -56.51,-141.26 -139.92,-165.48l-164.14 -48.43 26.91 -39.02c12.11,2.69 26.91,2.69 39.01,2.69 122.43,0 221.99,-87.45 221.99,-211.22 0,-33.64 -8.07,-64.58 -21.52,-91.49l88.79 0zm-191.04 91.49c0,57.85 -44.4,98.21 -98.22,98.21 -55.16,0 -99.55,-40.36 -99.55,-98.21 0,-57.85 44.39,-98.22 99.55,-98.22 53.82,0 98.22,40.37 98.22,98.22zm16.14 461.46c0,32.29 -43.05,69.96 -115.7,69.96 -59.2,0 -115.7,-37.67 -115.7,-87.45 0,-41.71 36.32,-69.96 53.81,-80.72l134.54 41.71c28.25,8.07 43.05,30.94 43.05,56.5z"/>
                <g>
     <path class="fil2"
           d="M3904.83 3310.24c0,-31.9 -29.28,-43.7 -54.63,-55.94 -10.06,-4.81 -14.86,-8.3 -14.86,-13.99 0,-6.11 6.55,-10.49 18.79,-10.49 18.36,0 38.46,8.75 45.89,12.24l0 -36.27c-6.55,-3.06 -27.1,-10.93 -48.08,-10.93 -30.59,0 -56.81,16.61 -56.81,48.08 0,30.15 31.03,43.27 53.32,54.63 12.24,6.12 15.73,10.05 15.73,14.86 0,6.56 -6.55,10.93 -19.23,10.93 -17.48,0 -41.52,-10.93 -48.51,-13.99l0 38.9c9.61,3.49 24.91,10.49 49.39,10.49 29.72,0 59,-15.74 59,-48.52z"/>
                    <path id="1" class="fil2"
                          d="M4106.75 3277.03c0,-46.33 -38.89,-82.17 -86.53,-82.17 -48.08,0 -86.98,35.84 -86.98,82.17 0,46.33 38.9,81.73 86.98,81.73 47.64,0 86.53,-35.4 86.53,-81.73zm-43.7 0c0,26.22 -19.67,45.45 -42.83,45.45 -23.6,0 -43.27,-19.23 -43.27,-45.45 0,-26.23 19.67,-45.89 43.27,-45.89 23.16,0 42.83,19.66 42.83,45.89z"/>
                    <path id="2" class="fil2"
                          d="M4275.03 3343.46l0 -38.02c-7,3.49 -27.54,14.42 -48.52,14.42 -30.15,0 -49.82,-17.92 -49.82,-42.83 0,-25.35 19.23,-43.71 49.82,-43.71 22.29,0 40.21,10.49 47.64,13.99l0 -37.15c-6.55,-3.5 -27.97,-14.86 -55.07,-14.86 -48.95,0 -86.1,34.96 -86.1,82.16 0,47.64 38.03,81.3 86.1,81.3 30.6,0 48.52,-11.37 55.95,-15.3z"/>
                    <path id="3" class="fil2"
                          d="M4362.43 3353.95l0 -154.28 -43.7 0 0 154.28 43.7 0zm6.56 -212.41l-28.85 -28.85 -28.4 28.41 28.84 28.85 28.41 -28.41z"/>
                    <path id="4" class="fil2"
                          d="M4505.35 3353.95l32.34 0 0 -100.96c0,-35.4 -27.53,-58.13 -65.99,-58.13 -23.61,0 -43.71,7.87 -55.51,20.98l0 38.02c11.8,-12.23 31.03,-21.41 52.88,-21.41 15.74,0 24.48,7.86 25.79,17.92l-33.22 8.3c-35.4,8.74 -55.5,25.79 -55.5,55.07 0,31.91 23.16,44.58 49.38,44.58 19.67,0 34.53,-6.99 43.27,-15.73l6.56 11.36zm-37.59 -28.85c-12.67,0 -19.67,-6.55 -19.67,-17.48 0,-11.8 8.31,-19.23 21.86,-22.73l25.35 -6.55 0 37.15c-7.87,5.68 -17.49,9.61 -27.54,9.61z"/>
                    <path id="5" class="fil2"
                          d="M4670.12 3312.43c-4.81,3.93 -15.73,8.74 -23.16,8.74 -8.31,0 -17.49,-3.93 -17.49,-17.92l0 -197.55 -43.7 0 0 199.74c0,36.27 19.67,53.32 46.33,53.32 17.92,0 32.34,-6.56 38.02,-12.68l0 -33.65z"/>
                    <path class="fil2"
                          d="M4924.06 3353.95l0 -93.09c0,-45.02 -24.04,-66 -56.82,-66 -26.23,0 -42.4,12.67 -48.08,17.92l-2.18 -13.11 -41.96 0 0 154.28 43.7 0 0 -104.46c6.12,-5.68 21.42,-17.04 35.41,-17.04 15.29,0 26.22,8.74 26.22,27.1l0 94.4 43.71 0z"/>
                    <path id="1" class="fil2"
                          d="M5108.49 3288.39l0 -20.54c0,-42.83 -28.84,-72.99 -68.62,-72.99 -42.39,0 -78.67,36.28 -78.67,82.17 0,51.13 43.27,81.73 86.1,81.73 37.59,0 54.2,-10.93 59.01,-13.55l0 -34.53c-6.56,2.62 -26.66,13.11 -54.64,13.11 -24.47,0 -41.95,-17.04 -46.76,-35.4l103.58 0zm-39.33 -27.53l-62.94 0c3.06,-17.49 15.73,-31.91 34.09,-31.91 18.79,0 28.85,17.05 28.85,31.91z"/>
                    <path id="2" class="fil2"
                          d="M5251.41 3350.45l0 -34.52c-7,3.06 -14.43,5.24 -22.73,5.24 -17.05,0 -27.54,-7.87 -27.54,-30.16l0 -55.5 41.96 0 7.43 -35.84 -49.39 0 0 -60.75 -43.7 0 0 60.75 -21.42 0 -7.43 35.84 28.85 0 0 55.07c0,52.01 25.79,68.18 55.51,68.18 17.04,0 31.03,-5.25 38.46,-8.31z"/>
                    <path id="3" class="fil2"
                          d="M5408.31 3353.95l34.09 0 59.88 -154.28 -44.58 0 -32.78 98.77 -30.59 -98.77 -42.83 0 13.11 36.27 -24.04 68.19 -35.84 -104.46 -42.83 0 60.31 154.28 35.4 0 22.29 -61.19c0.88,-2.62 1.75,-6.12 2.19,-9.18l26.22 70.37z"/>
                    <path id="4" class="fil2"
                          d="M5690.65 3277.03c0,-46.33 -38.89,-82.17 -86.53,-82.17 -48.08,0 -86.98,35.84 -86.98,82.17 0,46.33 38.9,81.73 86.98,81.73 47.64,0 86.53,-35.4 86.53,-81.73zm-43.7 0c0,26.22 -19.67,45.45 -42.83,45.45 -23.6,0 -43.27,-19.23 -43.27,-45.45 0,-26.23 19.67,-45.89 43.27,-45.89 23.16,0 42.83,19.66 42.83,45.89z"/>
                    <path id="5" class="fil2"
                          d="M5829.21 3236.38l0 -39.33c-2.63,-0.44 -8.74,-2.19 -18.8,-2.19 -24.91,0 -36.27,17.48 -38.9,20.98l-2.18 -16.17 -41.52 0 0 154.28 43.7 0 0 -106.64c4.37,-3.94 15.3,-14.43 33.22,-14.43 12.24,0 21.42,2.63 24.48,3.5z"/>
                    <path id="6" class="fil2"
                          d="M6008.84 3332.1l-15.3 -10.93c-0.87,3.06 -3.93,6.12 -8.3,6.12 -4.81,0 -9.18,-3.5 -12.67,-8.74l-34.97 -53.32 65.56 -65.56 -49.39 0 -56.82 58.56 0 -152.53 -43.7 0 0 248.25 43.7 0 0 -48.08 12.68 -12.67 30.59 45.02c9.62,14.42 21.42,20.1 35.41,20.1 17.91,0 29.72,-9.61 33.21,-26.22z"/>
                    <path class="fil2"
                          d="M6233.04 3121.44c-6.11,-6.55 -22.72,-23.16 -52,-23.16 -34.53,0 -66.43,24.48 -66.43,69.93l0 31.46 -20.11 0 -7.43 35.84 27.54 0 0 118.44 43.7 0 0 -118.44 45.02 0 7.43 -35.84 -52.45 0 0 -34.08c0,-19.67 12.24,-30.6 27.1,-30.6 11.8,0 18.35,7.43 21.85,12.24l25.78 -25.79z"/>
                    <path id="1" class="fil2"
                          d="M6391.26 3277.03c0,-46.33 -38.9,-82.16 -86.54,-82.16 -48.07,0 -86.97,35.83 -86.97,82.16 0,46.33 38.9,81.73 86.97,81.73 47.64,0 86.54,-35.4 86.54,-81.73zm-43.71 0c0,26.22 -19.66,45.45 -42.83,45.45 -23.6,0 -43.26,-19.23 -43.26,-45.45 0,-26.22 19.66,-45.89 43.26,-45.89 23.17,0 42.83,19.67 42.83,45.89z"/>
                    <path id="2" class="fil2"
                          d="M6529.8 3236.39l0 -39.34c-2.62,-0.43 -8.74,-2.18 -18.79,-2.18 -24.91,0 -36.28,17.48 -38.9,20.98l-2.18 -16.18 -41.52 0 0 154.28 43.7 0 0 -106.64c4.37,-3.93 15.3,-14.42 33.22,-14.42 12.23,0 21.41,2.62 24.47,3.5z"/>
                    <path class="fil2"
                          d="M6768.88 3288.39l0 -20.54c0,-42.83 -28.84,-72.98 -68.61,-72.98 -42.39,0 -78.67,36.27 -78.67,82.16 0,51.13 43.27,81.73 86.1,81.73 37.58,0 54.19,-10.93 59,-13.55l0 -34.53c-6.56,2.63 -26.66,13.11 -54.63,13.11 -24.48,0 -41.96,-17.04 -46.76,-35.4l103.57 0zm-39.33 -27.53l-62.93 0c3.06,-17.48 15.73,-31.9 34.09,-31.9 18.79,0 28.84,17.04 28.84,31.9z"/>
                    <polygon id="1" class="fil2"
                             points="6947.19,3199.67 6903.92,3199.67 6869.4,3304.56 6834.87,3199.67 6791.61,3199.67 6847.55,3353.95 6891.25,3353.95 "/>
                    <path id="2" class="fil2"
                          d="M7109.77 3288.39l0 -20.54c0,-42.83 -28.84,-72.98 -68.61,-72.98 -42.39,0 -78.67,36.27 -78.67,82.16 0,51.13 43.27,81.73 86.1,81.73 37.58,0 54.19,-10.93 59,-13.55l0 -34.53c-6.56,2.63 -26.66,13.11 -54.63,13.11 -24.48,0 -41.96,-17.04 -46.76,-35.4l103.57 0zm-39.33 -27.53l-62.93 0c3.06,-17.48 15.73,-31.9 34.09,-31.9 18.79,0 28.84,17.04 28.84,31.9z"/>
                    <path id="3" class="fil2"
                          d="M7255.74 3236.39l0 -39.34c-2.62,-0.43 -8.74,-2.18 -18.79,-2.18 -24.91,0 -36.28,17.48 -38.9,20.98l-2.18 -16.18 -41.52 0 0 154.28 43.7 0 0 -106.64c4.37,-3.93 15.3,-14.42 33.22,-14.42 12.23,0 21.41,2.62 24.47,3.5z"/>
                    <polygon id="4" class="fil2"
                             points="7413.51,3199.67 7370.24,3199.67 7335.72,3304.56 7301.19,3199.67 7257.93,3199.67 7313.87,3353.95 7277.59,3453.16 7319.55,3453.16 7355.39,3353.95 "/>
                    <path id="5" class="fil2"
                          d="M7602.32 3277.03c0,-46.33 -38.9,-82.16 -86.54,-82.16 -48.07,0 -86.97,35.83 -86.97,82.16 0,46.33 38.9,81.73 86.97,81.73 47.64,0 86.54,-35.4 86.54,-81.73zm-43.71 0c0,26.22 -19.66,45.45 -42.83,45.45 -23.6,0 -43.26,-19.23 -43.26,-45.45 0,-26.22 19.66,-45.89 43.26,-45.89 23.17,0 42.83,19.67 42.83,45.89z"/>
                    <path id="6" class="fil2"
                          d="M7788.5 3353.95l0 -93.09c0,-45.01 -24.04,-65.99 -56.82,-65.99 -26.22,0 -42.39,12.67 -48.07,17.92l-2.19 -13.12 -41.95 0 0 154.28 43.7 0 0 -104.45c6.12,-5.68 21.42,-17.05 35.4,-17.05 15.3,0 26.22,8.74 26.22,27.1l0 94.4 43.71 0z"/>
                    <path id="7" class="fil2"
                          d="M7972.93 3288.39l0 -20.54c0,-42.83 -28.84,-72.98 -68.61,-72.98 -42.39,0 -78.67,36.27 -78.67,82.16 0,51.13 43.27,81.73 86.1,81.73 37.58,0 54.19,-10.93 59,-13.55l0 -34.53c-6.56,2.63 -26.66,13.11 -54.63,13.11 -24.48,0 -41.96,-17.04 -46.76,-35.4l103.57 0zm-39.33 -27.53l-62.93 0c3.06,-17.48 15.73,-31.9 34.09,-31.9 18.79,0 28.84,17.04 28.84,31.9z"/>
                    <path id="8" class="fil2"
                          d="M8089.18 3105.71l-56.81 0 15.73 167.82 25.35 0 15.73 -167.82zm5.68 221.58l-34.09 -34.09 -34.08 34.09 34.08 34.09 34.09 -34.09z"/>
    </g>
   </g>
  </g>
 </g>
</svg>
