<?xml version="1.0" encoding="UTF-8"?>
<!DOCTYPE svg PUBLIC "-//W3C//DTD SVG 1.1//EN"
        "http://www.w3.org/Graphics/SVG/1.1/DTD/svg11.dtd">
<!-- Creator: CorelDRAW 2018 (64-Bit) -->
<svg xmlns="http://www.w3.org/2000/svg" xml:space="preserve" width="151mm"
     height="49mm" version="1.1"
     style="shape-rendering:geometricPrecision; text-rendering:geometricPrecision; image-rendering:optimizeQuality; fill-rule:evenodd; clip-rule:evenodd"
     viewBox="0 0 15100 4900"
     xmlns:xlink="http://www.w3.org/1999/xlink">
 <defs>
  <style type="text/css">
   <![CDATA[
    .fil0 {fill:#0A126E}
    .fil1 {fill:#FDFDFD}
    .fil2 {fill:#FEFEFE;fill-rule:nonzero}
   ]]>
  </style>
 </defs>
    <g id="Слой_x0020_1">
  <metadata id="CorelCorpID_0Corel-Layer"/>
        <g id="_2283918493600">
   <rect class="fil0" x="22.13" y="12.61" width="15055.7" height="4874.78"
         rx="1408.36" ry="1408.36"/>
            <g>
    <path class="fil1"
          d="M2141.51 2316.97c-153.9,-3.44 -411.88,-190.66 -535.31,-259.4 -313.21,-174.4 -737.72,-357.28 -1075.09,-546.11 -237.82,-133.11 -371.83,-226.27 -499.45,-253.13 -6.22,53.4 -9.52,107.65 -9.52,162.64l0 210.78 164.43 128.89c558.75,394.77 1111.31,740.96 1678.35,1118.99 132.94,88.64 253.33,165.12 362.57,273.2l121.13 164.95c31.49,61.57 63.22,155.79 82.52,235.38 55.31,228.1 129.7,787.57 175.79,1063.92 15.04,90.18 30.67,180.27 46.79,270.31l1139.78 0 -1316.22 -4002.91c-96.56,-289.79 -197.83,-579.59 -290.08,-871.87l-515.39 0c209.86,974.33 469.7,2034.46 469.7,2304.36z"/>
                <path class="fil1"
                      d="M4636.84 1045.45c-32.87,141.14 -463.28,616.36 -575.98,743.21 -32.37,36.42 -35.2,50.26 -71.4,87.54l-238.82 269.8c-77.67,87.88 -263.63,268.13 -274.04,393.49 933.85,494.14 1307.78,-290.83 1770.5,-979.14 286.68,-426.47 698.8,-1176.56 634.09,-1547.74l-1004.77 0c-24.62,11.8 -49.63,23.99 -75.33,36.83 -459.14,229.57 -1335.4,761.14 -1621.75,1112.02 -255.15,312.64 -212.67,711.33 -36.52,1044.25 339.83,-163.06 346.45,-215.83 655.49,-488.85 34.83,-30.78 52.97,-56.58 89.13,-85.72 77.77,-62.65 674.58,-546.09 749.4,-585.69z"/>
   </g>
            <g>
    <polygon class="fil2"
             points="8678.05,1259.56 8678.05,1001.81 7282.39,1001.81 7282.39,1259.56 7830.78,1259.56 7830.78,2559.25 8129.66,2559.25 8129.66,1259.56 "/>
                <path id="1" class="fil2"
                      d="M9316.93 2559.25l213.87 0 375.65 -967.92 -279.68 0 -205.65 619.69 -191.94 -619.69 -268.71 0 82.26 227.59 -150.81 427.75 -224.84 -655.34 -268.71 0 378.39 967.92 222.1 0 139.84 -383.88c5.48,-16.45 10.97,-38.38 13.71,-57.58l164.52 441.46z"/>
                <path id="2" class="fil2"
                      d="M10369.85 2559.25l0 -967.92 -274.2 0 0 967.92 274.2 0zm41.12 -1332.6l-180.97 -180.97 -178.22 178.23 180.97 180.97 178.22 -178.23z"/>
                <path id="3" class="fil2"
                      d="M11669.54 1805.21l0 -213.88 -238.56 0 -54.84 71.3c-79.51,-65.81 -183.71,-101.46 -296.13,-101.46 -249.52,0 -452.42,178.23 -452.42,430.49 0,150.81 71.29,274.2 183.71,350.97l-213.87 282.43 139.84 46.61c-63.07,52.1 -134.36,139.84 -134.36,255 0,219.36 213.87,359.2 463.39,359.2 307.1,0 499.04,-172.74 499.04,-353.71 0,-172.75 -115.16,-287.91 -285.16,-337.26l-334.52 -98.72 54.84 -79.51c24.67,5.48 54.83,5.48 79.51,5.48 249.52,0 452.43,-178.23 452.43,-430.49 0,-68.55 -16.45,-131.61 -43.87,-186.45l180.97 0zm-389.36 186.45c0,117.91 -90.49,200.17 -200.17,200.17 -112.42,0 -202.9,-82.26 -202.9,-200.17 0,-117.9 90.48,-200.16 202.9,-200.16 109.68,0 200.17,82.26 200.17,200.16zm32.9 940.5c0,65.81 -87.74,142.58 -235.81,142.58 -120.65,0 -235.81,-76.77 -235.81,-178.23 0,-85 74.03,-142.58 109.68,-164.52l274.2 85.01c57.58,16.45 87.74,63.06 87.74,115.16z"/>
                <g>
     <path class="fil2"
           d="M5317.94 4101.36c0,-65.03 -59.68,-89.08 -111.34,-114.02 -20.49,-9.8 -30.28,-16.93 -30.28,-28.5 0,-12.48 13.36,-21.38 38.3,-21.38 37.41,0 78.38,17.81 93.53,24.94l0 -73.93c-13.37,-6.24 -55.23,-22.27 -97.99,-22.27 -62.35,0 -115.79,33.85 -115.79,97.98 0,61.46 63.24,88.18 108.67,111.34 24.94,12.47 32.06,20.49 32.06,30.29 0,13.36 -13.36,22.27 -39.19,22.27 -35.63,0 -84.62,-22.27 -98.87,-28.51l0 79.28c19.59,7.13 50.77,21.38 100.65,21.38 60.57,0 120.25,-32.07 120.25,-98.87z"/>
                    <path id="1" class="fil2"
                          d="M5729.47 4033.66c0,-94.42 -79.28,-167.46 -176.37,-167.46 -97.98,0 -177.26,73.04 -177.26,167.46 0,94.42 79.28,166.57 177.26,166.57 97.09,0 176.37,-72.15 176.37,-166.57zm-89.07 0c0,53.44 -40.09,92.64 -87.3,92.64 -48.1,0 -88.18,-39.2 -88.18,-92.64 0,-53.45 40.08,-93.53 88.18,-93.53 47.21,0 87.3,40.08 87.3,93.53z"/>
                    <path id="2" class="fil2"
                          d="M6072.41 4169.05l0 -77.49c-14.26,7.12 -56.12,29.39 -98.88,29.39 -61.46,0 -101.54,-36.52 -101.54,-87.29 0,-51.67 39.19,-89.08 101.54,-89.08 45.43,0 81.95,21.38 97.09,28.51l0 -75.72c-13.36,-7.12 -57,-30.28 -112.23,-30.28 -99.76,0 -175.48,71.26 -175.48,167.46 0,97.09 77.5,165.68 175.48,165.68 62.35,0 98.87,-23.16 114.02,-31.18z"/>
                    <path id="3" class="fil2"
                          d="M6250.55 4190.43l0 -314.43 -89.07 0 0 314.43 89.07 0zm13.36 -432.9l-58.78 -58.79 -57.9 57.89 58.79 58.79 57.89 -57.89z"/>
                    <path id="4" class="fil2"
                          d="M6541.83 4190.43l65.91 0 0 -205.76c0,-72.15 -56.12,-118.47 -134.5,-118.47 -48.1,0 -89.08,16.03 -113.13,42.75l0 77.5c24.05,-24.94 63.25,-43.65 107.78,-43.65 32.07,0 49.89,16.04 52.56,36.52l-67.7 16.93c-72.15,17.81 -113.12,52.55 -113.12,112.23 0,65.03 47.21,90.86 100.65,90.86 40.08,0 70.37,-14.25 88.19,-32.07l13.36 23.16zm-76.61 -58.79c-25.83,0 -40.08,-13.36 -40.08,-35.63 0,-24.05 16.92,-39.19 44.54,-46.32l51.66 -13.36 0 75.71c-16.03,11.58 -35.63,19.6 -56.12,19.6z"/>
                    <path id="5" class="fil2"
                          d="M6877.64 4105.81c-9.8,8.02 -32.07,17.81 -47.21,17.81 -16.93,0 -35.63,-8.01 -35.63,-36.52l0 -402.62 -89.08 0 0 407.08c0,73.93 40.08,108.67 94.42,108.67 36.52,0 65.92,-13.36 77.5,-25.83l0 -68.59z"/>
                    <path class="fil2"
                          d="M7395.22 4190.43l0 -189.73c0,-91.75 -48.99,-134.5 -115.8,-134.5 -53.45,0 -86.4,25.83 -97.98,36.52l-4.46 -26.72 -85.51 0 0 314.43 89.08 0 0 -212.89c12.47,-11.58 43.64,-34.74 72.15,-34.74 31.17,0 53.44,17.82 53.44,55.23l0 192.4 89.08 0z"/>
                    <path id="1" class="fil2"
                          d="M7771.12 4056.82l0 -41.87c0,-87.29 -58.79,-148.75 -139.85,-148.75 -86.41,0 -160.34,73.93 -160.34,167.46 0,104.22 88.19,166.57 175.48,166.57 76.6,0 110.45,-22.27 120.25,-27.61l0 -70.37c-13.36,5.34 -54.33,26.72 -111.34,26.72 -49.88,0 -85.51,-34.74 -95.31,-72.15l211.11 0zm-80.17 -56.12l-128.27 0c6.23,-35.63 32.07,-65.02 69.48,-65.02 38.3,0 58.79,34.73 58.79,65.02z"/>
                    <path id="2" class="fil2"
                          d="M8062.39 4183.3l0 -70.37c-14.25,6.24 -29.39,10.69 -46.32,10.69 -34.74,0 -56.12,-16.03 -56.12,-61.46l0 -113.12 85.52 0 15.14 -73.04 -100.66 0 0 -123.82 -89.07 0 0 123.82 -43.65 0 -15.14 73.04 58.79 0 0 112.23c0,106 52.55,138.96 113.12,138.96 34.74,0 63.25,-10.69 78.39,-16.93z"/>
                    <path id="3" class="fil2"
                          d="M8382.16 4190.43l69.48 0 122.04 -314.43 -90.86 0 -66.81 201.3 -62.35 -201.3 -87.29 0 26.72 73.93 -48.99 138.95 -73.04 -212.88 -87.3 0 122.93 314.43 72.15 0 45.43 -124.7c1.78,-5.35 3.56,-12.48 4.45,-18.71l53.44 143.41z"/>
                    <path id="4" class="fil2"
                          d="M8957.59 4033.66c0,-94.42 -79.28,-167.46 -176.37,-167.46 -97.98,0 -177.26,73.04 -177.26,167.46 0,94.42 79.28,166.57 177.26,166.57 97.09,0 176.37,-72.15 176.37,-166.57zm-89.07 0c0,53.44 -40.09,92.64 -87.3,92.64 -48.1,0 -88.18,-39.2 -88.18,-92.64 0,-53.45 40.08,-93.53 88.18,-93.53 47.21,0 87.3,40.08 87.3,93.53z"/>
                    <path id="5" class="fil2"
                          d="M9239.96 3950.82l0 -80.17c-5.35,-0.89 -17.82,-4.45 -38.31,-4.45 -50.77,0 -73.93,35.63 -79.27,42.75l-4.46 -32.95 -84.62 0 0 314.43 89.08 0 0 -217.34c8.9,-8.02 31.17,-29.4 67.69,-29.4 24.94,0 43.65,5.35 49.89,7.13z"/>
                    <path id="6" class="fil2"
                          d="M9606.06 4145.89l-31.18 -22.27c-1.78,6.24 -8.01,12.47 -16.92,12.47 -9.8,0 -18.71,-7.12 -25.83,-17.81l-71.26 -108.67 133.61 -133.61 -100.66 0 -115.79 119.36 0 -310.88 -89.08 0 0 505.95 89.08 0 0 -97.98 25.83 -25.83 62.35 91.74c19.6,29.4 43.65,40.98 72.15,40.98 36.52,0 60.57,-19.6 67.7,-53.45z"/>
                    <path class="fil2"
                          d="M10063.06 3716.57c-12.47,-13.36 -46.32,-47.21 -106,-47.21 -70.36,0 -135.39,49.88 -135.39,142.52l0 64.13 -40.97 0 -15.14 73.04 56.11 0 0 241.38 89.08 0 0 -241.38 91.74 0 15.14 -73.04 -106.88 0 0 -69.48c0,-40.08 24.93,-62.35 55.22,-62.35 24.05,0 37.41,15.15 44.53,24.94l52.56 -52.55z"/>
                    <path id="1" class="fil2"
                          d="M10385.49 4033.67c0,-94.42 -79.27,-167.46 -176.36,-167.46 -97.98,0 -177.25,73.04 -177.25,167.46 0,94.41 79.27,166.56 177.25,166.56 97.09,0 176.36,-72.15 176.36,-166.56zm-89.07 0c0,53.44 -40.08,92.63 -87.29,92.63 -48.1,0 -88.18,-39.19 -88.18,-92.63 0,-53.45 40.08,-93.53 88.18,-93.53 47.21,0 87.29,40.08 87.29,93.53z"/>
                    <path id="2" class="fil2"
                          d="M10667.84 3950.83l0 -80.16c-5.34,-0.9 -17.81,-4.46 -38.3,-4.46 -50.77,0 -73.93,35.63 -79.27,42.76l-4.45 -32.96 -84.62 0 0 314.42 89.07 0 0 -217.33c8.91,-8.02 31.17,-29.4 67.69,-29.4 24.94,0 43.65,5.35 49.88,7.13z"/>
                    <path class="fil2"
                          d="M11155.14 4056.82l0 -41.86c0,-87.29 -58.79,-148.75 -139.84,-148.75 -86.4,0 -160.33,73.93 -160.33,167.46 0,104.21 88.18,166.56 175.47,166.56 76.6,0 110.45,-22.27 120.25,-27.61l0 -70.37c-13.36,5.34 -54.34,26.72 -111.34,26.72 -49.88,0 -85.51,-34.74 -95.31,-72.15l211.1 0zm-80.16 -56.11l-128.27 0c6.24,-35.63 32.07,-65.02 69.48,-65.02 38.3,0 58.79,34.73 58.79,65.02z"/>
                    <polygon id="1" class="fil2"
                             points="11518.55,3876.01 11430.37,3876.01 11360,4089.78 11289.63,3876.01 11201.45,3876.01 11315.46,4190.43 11404.54,4190.43 "/>
                    <path id="2" class="fil2"
                          d="M11849.89 4056.82l0 -41.86c0,-87.29 -58.79,-148.75 -139.84,-148.75 -86.4,0 -160.33,73.93 -160.33,167.46 0,104.21 88.18,166.56 175.47,166.56 76.6,0 110.45,-22.27 120.25,-27.61l0 -70.37c-13.36,5.34 -54.34,26.72 -111.34,26.72 -49.88,0 -85.51,-34.74 -95.31,-72.15l211.1 0zm-80.16 -56.11l-128.27 0c6.24,-35.63 32.07,-65.02 69.48,-65.02 38.3,0 58.79,34.73 58.79,65.02z"/>
                    <path id="3" class="fil2"
                          d="M12147.38 3950.83l0 -80.16c-5.34,-0.9 -17.81,-4.46 -38.3,-4.46 -50.77,0 -73.93,35.63 -79.27,42.76l-4.45 -32.96 -84.62 0 0 314.42 89.07 0 0 -217.33c8.91,-8.02 31.17,-29.4 67.69,-29.4 24.94,0 43.65,5.35 49.88,7.13z"/>
                    <polygon id="4" class="fil2"
                             points="12468.93,3876.01 12380.75,3876.01 12310.38,4089.78 12240.01,3876.01 12151.83,3876.01 12265.84,4190.43 12191.92,4392.62 12277.42,4392.62 12350.46,4190.43 "/>
                    <path id="5" class="fil2"
                          d="M12853.71 4033.67c0,-94.42 -79.27,-167.46 -176.36,-167.46 -97.98,0 -177.25,73.04 -177.25,167.46 0,94.41 79.27,166.56 177.25,166.56 97.09,0 176.36,-72.15 176.36,-166.56zm-89.07 0c0,53.44 -40.08,92.63 -87.29,92.63 -48.1,0 -88.18,-39.19 -88.18,-92.63 0,-53.45 40.08,-93.53 88.18,-93.53 47.21,0 87.29,40.08 87.29,93.53z"/>
                    <path id="6" class="fil2"
                          d="M13233.15 4190.43l0 -189.72c0,-91.74 -48.99,-134.5 -115.79,-134.5 -53.44,0 -86.4,25.83 -97.98,36.52l-4.45 -26.72 -85.51 0 0 314.42 89.07 0 0 -212.88c12.47,-11.58 43.64,-34.74 72.15,-34.74 31.17,0 53.44,17.82 53.44,55.23l0 192.39 89.07 0z"/>
                    <path id="7" class="fil2"
                          d="M13609.03 4056.82l0 -41.86c0,-87.29 -58.79,-148.75 -139.84,-148.75 -86.4,0 -160.33,73.93 -160.33,167.46 0,104.21 88.18,166.56 175.47,166.56 76.6,0 110.45,-22.27 120.25,-27.61l0 -70.37c-13.36,5.34 -54.34,26.72 -111.34,26.72 -49.88,0 -85.51,-34.74 -95.31,-72.15l211.1 0zm-80.16 -56.11l-128.27 0c6.24,-35.63 32.07,-65.02 69.48,-65.02 38.3,0 58.79,34.73 58.79,65.02z"/>
                    <path id="8" class="fil2"
                          d="M13845.96 3684.51l-115.8 0 32.07 342.03 51.66 0 32.07 -342.03zm11.57 451.59l-69.47 -69.48 -69.48 69.48 69.48 69.47 69.47 -69.47z"/>
    </g>
   </g>
  </g>
 </g>
</svg>
